<svg id="b303a4ea-2a58-492c-943d-4984f057d265" data-name="Layer 1" xmlns="http://www.w3.org/2000/svg" xmlns:xlink="http://www.w3.org/1999/xlink" viewBox="0 0 372.78 144.65"><defs><style>.a1541788-6510-42e2-a957-6d80dcec5376,.acecbdb5-10fe-47c3-80de-67f11276e090,.b14179c5-6494-4d39-a16e-09e2c635a18f,.b20b47a2-bc7b-40b1-b994-ed15b63f3af5,.b41ad756-86ee-44c0-bd8d-bf164cc221f0,.b9bb4eda-10b0-4724-8d98-f7f35ec92728,.ec6af276-c933-4328-adcc-193854dfd5a8{fill:none;}.a1541788-6510-42e2-a957-6d80dcec5376,.acecbdb5-10fe-47c3-80de-67f11276e090,.b14179c5-6494-4d39-a16e-09e2c635a18f,.b20b47a2-bc7b-40b1-b994-ed15b63f3af5,.b41ad756-86ee-44c0-bd8d-bf164cc221f0,.b9bb4eda-10b0-4724-8d98-f7f35ec92728{stroke:#000;}.acecbdb5-10fe-47c3-80de-67f11276e090,.b20b47a2-bc7b-40b1-b994-ed15b63f3af5{stroke-linecap:square;}.a1541788-6510-42e2-a957-6d80dcec5376,.acecbdb5-10fe-47c3-80de-67f11276e090,.b20b47a2-bc7b-40b1-b994-ed15b63f3af5,.b41ad756-86ee-44c0-bd8d-bf164cc221f0,.b9bb4eda-10b0-4724-8d98-f7f35ec92728{stroke-miterlimit:10;}.b5364ee6-4596-4973-9f8b-1de0c5fdbd5a{fill:#cbcbcb;}.a1541788-6510-42e2-a957-6d80dcec5376,.acecbdb5-10fe-47c3-80de-67f11276e090,.b14179c5-6494-4d39-a16e-09e2c635a18f,.b41ad756-86ee-44c0-bd8d-bf164cc221f0{stroke-width:2px;}.a1541788-6510-42e2-a957-6d80dcec5376,.b14179c5-6494-4d39-a16e-09e2c635a18f{stroke-linecap:round;}.b14179c5-6494-4d39-a16e-09e2c635a18f{stroke-linejoin:round;}.b854d1cd-d7f0-46d2-ac5e-5ca30e015354{clip-path:url(#a9773c52-9e73-417c-9323-4a849b3b781b);}.a73e2733-fc67-43a4-afe6-a83f730ebc71{fill:#70a4d9;}.bb82aca0-7b75-4218-84e9-e686477dc23a{fill:#fff;}.f59dbbe7-1ee5-4832-81e7-7cf622f518e2{fill:#e05a49;}.f98d8a1e-6a9e-4272-8c95-9eff2957812a{fill:#7ccd62;}.b9923e73-c4dc-4094-b6c3-8f9d82f6e2cf{fill:#f2bf4f;}</style><clipPath id="a9773c52-9e73-417c-9323-4a849b3b781b" transform="translate(-313.18 -427.51)"><rect class="ec6af276-c933-4328-adcc-193854dfd5a8" x="307" y="424" width="385" height="152"/></clipPath></defs><title>toggle</title><path d="M335.93,524.85a1.71,1.71,0,0,0,.65,1.41,2.86,2.86,0,0,0,1.79.51,2.57,2.57,0,0,0,1.73-.52,1.67,1.67,0,0,0,.61-1.31,1.43,1.43,0,0,0-.52-1.18,2.56,2.56,0,0,0-1-.41l-1-.24a3.34,3.34,0,0,1-.77-.24.49.49,0,0,1-.28-.46.6.6,0,0,1,.28-.53,1.44,1.44,0,0,1,.77-.18,1.66,1.66,0,0,1,.71.14.83.83,0,0,1,.47.74h1.15a1.72,1.72,0,0,0-.68-1.4,2.57,2.57,0,0,0-1.57-.48,2.42,2.42,0,0,0-1.67.51,1.65,1.65,0,0,0-.57,1.28,1.4,1.4,0,0,0,.58,1.25,3.75,3.75,0,0,0,1.26.44l.62.14a2.7,2.7,0,0,1,.8.27.49.49,0,0,1,.26.44.69.69,0,0,1-.52.67,2.25,2.25,0,0,1-.7.09,1.3,1.3,0,0,1-1-.35,1.2,1.2,0,0,1-.22-.59Zm7.3-1.68a1,1,0,0,1,.66.23.92.92,0,0,1,.3.67h-1.92a1.16,1.16,0,0,1,.3-.66.89.89,0,0,1,.66-.24Zm0-.92a2.07,2.07,0,0,0-1.52.59,2.33,2.33,0,0,0-.59,1.7,2.06,2.06,0,0,0,.65,1.7,2.35,2.35,0,0,0,1.5.53,2.11,2.11,0,0,0,1.61-.62,1.43,1.43,0,0,0,.41-.77h-1.14a.85.85,0,0,1-.23.29.94.94,0,0,1-.62.19,1.11,1.11,0,0,1-.61-.16,1,1,0,0,1-.44-.89h3.1a6.23,6.23,0,0,0,0-.85,2,2,0,0,0-.34-.88,1.67,1.67,0,0,0-.74-.63,2.44,2.44,0,0,0-1-.2Zm4.48,3.55a.81.81,0,0,1-.81-.53,1.89,1.89,0,0,1-.12-.73,1.55,1.55,0,0,1,.26-1,.81.81,0,0,1,.68-.33.84.84,0,0,1,.83.56,1.71,1.71,0,0,1,.14.7,2,2,0,0,1-.16.82.83.83,0,0,1-.82.49Zm-.28-3.55a1.57,1.57,0,0,0-1.28.64,2.58,2.58,0,0,0-.53,1.7,2.35,2.35,0,0,0,.52,1.58,1.64,1.64,0,0,0,1.26.59,1.44,1.44,0,0,0,.83-.21,1.22,1.22,0,0,0,.43-.45v2.21h1.1v-5.94h-1.08V523a1.74,1.74,0,0,0-.39-.49,1.36,1.36,0,0,0-.86-.26Zm3.34.11v2.57A2.66,2.66,0,0,0,351,526a1.28,1.28,0,0,0,1.27.68,1.62,1.62,0,0,0,.57-.09,1.5,1.5,0,0,0,.5-.32.8.8,0,0,0,.15-.17l.08-.12v.6h1.08v-4.26h-1.13v2.32a1.57,1.57,0,0,1-.11.66.77.77,0,0,1-.77.46.6.6,0,0,1-.6-.32,1.33,1.33,0,0,1-.08-.55v-2.57Zm6.69.81a1,1,0,0,1,.66.23,1,1,0,0,1,.29.67H356.5a1.15,1.15,0,0,1,.29-.66.9.9,0,0,1,.67-.24Zm0-.92a2.07,2.07,0,0,0-1.53.59,2.32,2.32,0,0,0-.58,1.7,2,2,0,0,0,.65,1.7,2.31,2.31,0,0,0,1.5.53,2.09,2.09,0,0,0,1.6-.62,1.43,1.43,0,0,0,.41-.77h-1.14a.83.83,0,0,1-.84.48,1.12,1.12,0,0,1-.62-.16,1,1,0,0,1-.44-.89h3.1a6.23,6.23,0,0,0,0-.85,2,2,0,0,0-.34-.88,1.7,1.7,0,0,0-.73-.63,2.48,2.48,0,0,0-1-.2Zm5,0a1.43,1.43,0,0,0-.87.26,2.24,2.24,0,0,0-.4.47v-.62h-1.08v4.25h1.11v-2.3a1.73,1.73,0,0,1,.11-.65.77.77,0,0,1,.77-.48.61.61,0,0,1,.62.33,1.16,1.16,0,0,1,.09.51v2.59H364v-2.86a1.43,1.43,0,0,0-.41-1.15,1.65,1.65,0,0,0-1.08-.35Zm6.22,1.63a1.71,1.71,0,0,0-.61-1.27,2.23,2.23,0,0,0-1.31-.36,1.89,1.89,0,0,0-1.48.61,2.55,2.55,0,0,0-.53,1.71,2.5,2.5,0,0,0,.48,1.58,2,2,0,0,0,3.43-1.08h-1.13a1.09,1.09,0,0,1-.2.54.68.68,0,0,1-.56.21.73.73,0,0,1-.75-.53,2.2,2.2,0,0,1-.11-.75,2.42,2.42,0,0,1,.11-.79.78.78,0,0,1,.77-.56.69.69,0,0,1,.59.26,1.06,1.06,0,0,1,.16.43Zm2.53-.72a1,1,0,0,1,.66.23.92.92,0,0,1,.3.67h-1.92a1.16,1.16,0,0,1,.3-.66.88.88,0,0,1,.66-.24Zm0-.92a2.07,2.07,0,0,0-1.52.59,2.33,2.33,0,0,0-.59,1.7,2.06,2.06,0,0,0,.65,1.7,2.35,2.35,0,0,0,1.5.53,2.07,2.07,0,0,0,1.6-.62,1.38,1.38,0,0,0,.42-.77h-1.14a1,1,0,0,1-.23.29.94.94,0,0,1-.62.19,1.09,1.09,0,0,1-.61-.16,1,1,0,0,1-.45-.89h3.1a5.14,5.14,0,0,0,0-.85,2.13,2.13,0,0,0-.34-.88,1.67,1.67,0,0,0-.74-.63,2.44,2.44,0,0,0-1-.2Zm2.52,1.54a3.23,3.23,0,0,0,.7,2.2,2.44,2.44,0,0,0,1.93.79,2.27,2.27,0,0,0,1.63-.59,2.52,2.52,0,0,0,.79-1.53h-1.19a1.83,1.83,0,0,1-.3.67,1.12,1.12,0,0,1-.95.41,1.22,1.22,0,0,1-1-.48,2.26,2.26,0,0,1-.39-1.45,2.58,2.58,0,0,1,.37-1.5,1.18,1.18,0,0,1,1-.53,1.21,1.21,0,0,1,1,.38,1.71,1.71,0,0,1,.29.62h1.2a2,2,0,0,0-.39-1.07,2.36,2.36,0,0,0-2.1-1,2.34,2.34,0,0,0-1.77.71,3.15,3.15,0,0,0-.8,2.32Zm7.84,2a.9.9,0,0,1-.75-.34,2,2,0,0,1,0-2,.9.9,0,0,1,.75-.34.87.87,0,0,1,.75.34,2,2,0,0,1,0,2,.87.87,0,0,1-.75.34Zm2.18-1.33a2.55,2.55,0,0,0-.53-1.6,2.34,2.34,0,0,0-3.28,0,2.5,2.5,0,0,0-.54,1.6,2.46,2.46,0,0,0,.54,1.6,2.34,2.34,0,0,0,3.28,0,2.51,2.51,0,0,0,.53-1.6Zm3.16-2.24a1.43,1.43,0,0,0-.87.26,2,2,0,0,0-.4.47v-.62h-1.08v4.25h1.11v-2.3a1.73,1.73,0,0,1,.11-.65.77.77,0,0,1,.77-.48.62.62,0,0,1,.62.33,1.16,1.16,0,0,1,.09.51v2.59h1.14v-2.86a1.4,1.4,0,0,0-.42-1.15,1.6,1.6,0,0,0-1.07-.35Zm2.26,3a1.37,1.37,0,0,0,.48,1.08,2.17,2.17,0,0,0,1.49.43,2.27,2.27,0,0,0,1.46-.4,1.31,1.31,0,0,0,.47-1,1.08,1.08,0,0,0-.33-.8,2.07,2.07,0,0,0-1-.47,7.7,7.7,0,0,1-1.16-.31.3.3,0,0,1-.17-.28.33.33,0,0,1,.16-.26.87.87,0,0,1,.52-.11.79.79,0,0,1,.63.22.8.8,0,0,1,.12.34H393a1.35,1.35,0,0,0-.58-1.1,2.41,2.41,0,0,0-1.3-.32,1.85,1.85,0,0,0-1.3.43,1.32,1.32,0,0,0-.47,1,1,1,0,0,0,.3.77,2.44,2.44,0,0,0,1,.45,7.77,7.77,0,0,1,1.17.33.33.33,0,0,1,.15.29.3.3,0,0,1-.19.29,1.14,1.14,0,0,1-.53.1,1.09,1.09,0,0,1-.77-.22.93.93,0,0,1-.15-.43Zm4.87-2.06v2.62a.85.85,0,0,0,.19.59,1.41,1.41,0,0,0,1.08.27l.53,0v-.83h-.22c-.23,0-.36,0-.41-.07a.53.53,0,0,1-.06-.32V523.2h.69v-.8h-.69v-1.18h-1.11v1.18h-.59v.8Zm4.82-.94a1.2,1.2,0,0,0-.81.27,2.07,2.07,0,0,0-.45.58v-.75h-1.06v4.26h1.12v-2a1.65,1.65,0,0,1,.13-.76.92.92,0,0,1,.9-.44H399v-1.14h-.15Zm3.17,2.71a.89.89,0,0,1-.32.77,1.16,1.16,0,0,1-.67.21.65.65,0,0,1-.39-.13.48.48,0,0,1-.16-.41.5.5,0,0,1,.26-.47,1.7,1.7,0,0,1,.51-.16l.26,0,.3-.08a1.06,1.06,0,0,0,.21-.11V525Zm-1.06-.89a2.77,2.77,0,0,0-1,.27,1.22,1.22,0,0,0-.61,1.14,1.19,1.19,0,0,0,.37.94,1.44,1.44,0,0,0,1,.33,1.58,1.58,0,0,0,.81-.21,2.49,2.49,0,0,0,.54-.43,1.7,1.7,0,0,0,0,.26.73.73,0,0,0,.07.24h1.21v-.16a.43.43,0,0,1-.16-.13.59.59,0,0,1-.07-.3c0-.19,0-.35,0-.49v-1.95a1.07,1.07,0,0,0-.54-1.05,2.8,2.8,0,0,0-1.25-.28,1.8,1.8,0,0,0-1.52.57,1.63,1.63,0,0,0-.32.91h1.08a.77.77,0,0,1,.16-.39.69.69,0,0,1,.56-.19,1.1,1.1,0,0,1,.54.1.37.37,0,0,1,.19.36.34.34,0,0,1-.24.32,2,2,0,0,1-.45.09l-.38.05Zm4.29-3.25h-1.13v1h1.13v-1Zm-1.13,5.79h1.13v-4.26h-1.13v4.26Zm4.56-4.36a1.4,1.4,0,0,0-.86.26,2.25,2.25,0,0,0-.41.47v-.62h-1.08v4.25h1.12v-2.3a1.55,1.55,0,0,1,.11-.65.76.76,0,0,1,.77-.48.63.63,0,0,1,.62.33,1.16,1.16,0,0,1,.09.51v2.59h1.14v-2.86a1.4,1.4,0,0,0-.42-1.15,1.65,1.65,0,0,0-1.08-.35Zm2.69.94v2.62a.81.81,0,0,0,.19.59,1.41,1.41,0,0,0,1.08.27l.52,0v-.83H413c-.22,0-.36,0-.4-.07s-.07-.15-.07-.32V523.2h.69v-.8h-.69v-1.18h-1.1v1.18h-.59v.8Zm2.24,2.06a1.37,1.37,0,0,0,.48,1.08,2.17,2.17,0,0,0,1.49.43,2.24,2.24,0,0,0,1.45-.4,1.29,1.29,0,0,0,.48-1,1.08,1.08,0,0,0-.33-.8,2.12,2.12,0,0,0-1-.47,7.7,7.7,0,0,1-1.16-.31.3.3,0,0,1-.17-.28.33.33,0,0,1,.16-.26.85.85,0,0,1,.52-.11.75.75,0,0,1,.62.22.69.69,0,0,1,.13.34h1.11a1.35,1.35,0,0,0-.58-1.1,2.41,2.41,0,0,0-1.3-.32,1.9,1.9,0,0,0-1.31.43,1.35,1.35,0,0,0-.46,1,1,1,0,0,0,.3.77,2.44,2.44,0,0,0,1,.45,7.09,7.09,0,0,1,1.16.33.32.32,0,0,1,.16.29.3.3,0,0,1-.19.29,1.14,1.14,0,0,1-.53.1,1.09,1.09,0,0,1-.77-.22.83.83,0,0,1-.15-.43Z" transform="translate(-313.18 -427.51)"/><path d="M318.32,486a1.24,1.24,0,0,1-1.25-.81,2.49,2.49,0,0,1-.19-1,3.33,3.33,0,0,1,.19-1.24,1.32,1.32,0,0,1,2.5-.05,2.66,2.66,0,0,1,.19,1.07,2.46,2.46,0,0,1-.41,1.54,1.29,1.29,0,0,1-1,.52ZM316,488.63h.88V486a2.13,2.13,0,0,0,.52.5,1.75,1.75,0,0,0,1,.26,2,2,0,0,0,1.32-.46,3,3,0,0,0,.9-2.44,2.82,2.82,0,0,0-.62-1.95,2,2,0,0,0-1.52-.68,1.87,1.87,0,0,0-1,.29,2.18,2.18,0,0,0-.58.56v-.7H316v7.29Zm5.75-2.08h4.57v-.86h-3.6v-6.32h-1v7.18Zm6.12-1.39a.77.77,0,0,1,.41-.73,2,2,0,0,1,.72-.2l.53-.07a3,3,0,0,0,.49-.1,1.66,1.66,0,0,0,.42-.17v.71a1.21,1.21,0,0,1-.73,1.16,2.06,2.06,0,0,1-.9.22,1,1,0,0,1-.66-.22.72.72,0,0,1-.28-.6Zm.73-1.6a2.12,2.12,0,0,0-1.19.49,1.41,1.41,0,0,0-.46,1.13,1.48,1.48,0,0,0,.46,1.1,1.64,1.64,0,0,0,1.19.44,2.27,2.27,0,0,0,1.11-.26,2.11,2.11,0,0,0,.77-.61,1.35,1.35,0,0,0,.15.49.74.74,0,0,0,.66.32l.3,0,.31-.07v-.65l-.16,0h-.13a.3.3,0,0,1-.24-.08.48.48,0,0,1-.05-.22v-3a1.2,1.2,0,0,0-.57-1.1,2.92,2.92,0,0,0-1.5-.35,2.6,2.6,0,0,0-1.4.38,1.5,1.5,0,0,0-.62,1.35h.82a1,1,0,0,1,1.18-1,1.63,1.63,0,0,1,.91.21.69.69,0,0,1,.32.65.77.77,0,0,1-.06.34.45.45,0,0,1-.4.25l-1.4.18Zm6.17-2.39a2.16,2.16,0,0,0-1.7.76,3.15,3.15,0,0,0-.67,2.15,2.86,2.86,0,0,0,.61,1.87,2,2,0,0,0,1.64.75,2.06,2.06,0,0,0,2.23-2h-.86a1.77,1.77,0,0,1-.44.91,1.14,1.14,0,0,1-.86.33,1.15,1.15,0,0,1-1.05-.53,2.5,2.5,0,0,1-.33-1.33,3.38,3.38,0,0,1,.23-1.31,1.24,1.24,0,0,1,1.2-.82,1.16,1.16,0,0,1,.9.32,1.62,1.62,0,0,1,.35.81h.86a2.07,2.07,0,0,0-.67-1.48,2.26,2.26,0,0,0-1.44-.43Z" transform="translate(-313.18 -427.51)"/><path d="M314.93,473.58a1.68,1.68,0,0,0,.66,1.41,2.75,2.75,0,0,0,1.78.52,2.63,2.63,0,0,0,1.73-.52,1.69,1.69,0,0,0,.61-1.32,1.39,1.39,0,0,0-.52-1.17,2.41,2.41,0,0,0-1-.42l-1-.24a3.34,3.34,0,0,1-.77-.24.48.48,0,0,1-.28-.46.59.59,0,0,1,.29-.52,1.32,1.32,0,0,1,.76-.19,1.52,1.52,0,0,1,.71.15.82.82,0,0,1,.47.74h1.15a1.71,1.71,0,0,0-.68-1.41,2.57,2.57,0,0,0-1.57-.48,2.42,2.42,0,0,0-1.67.51,1.67,1.67,0,0,0-.57,1.29,1.42,1.42,0,0,0,.58,1.25,4.26,4.26,0,0,0,1.26.44l.63.13a2.93,2.93,0,0,1,.8.27.51.51,0,0,1,.25.44.67.67,0,0,1-.52.67,2.21,2.21,0,0,1-.7.1,1.27,1.27,0,0,1-1-.36,1.2,1.2,0,0,1-.22-.59Zm5.5-2.48v2.57a2.64,2.64,0,0,0,.18,1.1,1.26,1.26,0,0,0,1.27.68,1.91,1.91,0,0,0,.57-.08,1.71,1.71,0,0,0,.51-.32.9.9,0,0,0,.15-.18l.07-.11v.6h1.09V471.1h-1.13v2.32a1.75,1.75,0,0,1-.11.66.79.79,0,0,1-.78.46.59.59,0,0,1-.59-.33,1.25,1.25,0,0,1-.09-.54V471.1Zm7.23-.09a1.4,1.4,0,0,0-.77.19,1.7,1.7,0,0,0-.47.46v-2.05h-1.11v5.75h1.1v-.54a1.61,1.61,0,0,0,.41.44,1.56,1.56,0,0,0,.86.21,1.53,1.53,0,0,0,1.31-.65,2.78,2.78,0,0,0,.47-1.65,2.46,2.46,0,0,0-.48-1.56,1.59,1.59,0,0,0-1.32-.6Zm-.28,3.54a.83.83,0,0,1-.74-.36,1.52,1.52,0,0,1-.25-.9,2.05,2.05,0,0,1,.12-.76.91.91,0,0,1,1.67,0,2.28,2.28,0,0,1,.11.75,1.61,1.61,0,0,1-.24.92.76.76,0,0,1-.67.34Zm2.69-2a3.19,3.19,0,0,0,.71,2.19,2.45,2.45,0,0,0,1.93.8,2.31,2.31,0,0,0,1.63-.59,2.61,2.61,0,0,0,.79-1.53h-1.2a1.75,1.75,0,0,1-.29.67,1.15,1.15,0,0,1-.95.41,1.22,1.22,0,0,1-1-.48,2.28,2.28,0,0,1-.39-1.45,2.56,2.56,0,0,1,.37-1.5,1.14,1.14,0,0,1,1-.53,1.17,1.17,0,0,1,.95.37,1.68,1.68,0,0,1,.3.63h1.2a2.16,2.16,0,0,0-.39-1.08,2.7,2.7,0,0,0-3.88-.24,3.21,3.21,0,0,0-.8,2.33Zm7.85,2a.9.9,0,0,1-.75-.35,2,2,0,0,1,0-2,.9.9,0,0,1,.75-.34.87.87,0,0,1,.75.34,2,2,0,0,1,0,2,.88.88,0,0,1-.75.35Zm2.18-1.33a2.48,2.48,0,0,0-.54-1.6,2.31,2.31,0,0,0-3.27,0,2.64,2.64,0,0,0,0,3.2,2.36,2.36,0,0,0,3.27,0,2.48,2.48,0,0,0,.54-1.6Zm5.56-2.23a1.77,1.77,0,0,0-.77.17,1.43,1.43,0,0,0-.54.55,1.2,1.2,0,0,0-.37-.51,1.56,1.56,0,0,0-1.63,0,1.82,1.82,0,0,0-.39.47v-.62h-1.08v4.25H342V472.8a1.2,1.2,0,0,1,.09-.53.67.67,0,0,1,.64-.31.55.55,0,0,1,.55.31,1.48,1.48,0,0,1,.08.55v2.54h1.12v-2.54a1.22,1.22,0,0,1,.09-.49.65.65,0,0,1,.64-.38.55.55,0,0,1,.54.3.92.92,0,0,1,.08.4v2.71H347v-2.69a3.29,3.29,0,0,0,0-.62,1.2,1.2,0,0,0-.24-.55,1.26,1.26,0,0,0-.5-.38,1.35,1.35,0,0,0-.55-.11Zm5.31,2.22a1.71,1.71,0,0,1-.25,1,.82.82,0,0,1-.72.36.91.91,0,0,1-.56-.18,1.24,1.24,0,0,1-.4-1,2.17,2.17,0,0,1,.12-.78A.83.83,0,0,1,350,472a.8.8,0,0,1,.74.38,1.66,1.66,0,0,1,.23.87Zm-.65-2.22a1.43,1.43,0,0,0-.89.28,1.88,1.88,0,0,0-.38.44v-.63H348V477h1.1v-2.21a2.15,2.15,0,0,0,.36.41,1.45,1.45,0,0,0,.85.25,1.64,1.64,0,0,0,1.31-.59,2.56,2.56,0,0,0,.51-1.72,2.23,2.23,0,0,0-.52-1.61,1.66,1.66,0,0,0-1.27-.55Zm4.49,3.56a.88.88,0,0,1-.75-.35,1.93,1.93,0,0,1,0-2,.87.87,0,0,1,.75-.34.9.9,0,0,1,.75.34,2,2,0,0,1,0,2,.9.9,0,0,1-.75.35Zm2.18-1.33a2.48,2.48,0,0,0-.54-1.6,2,2,0,0,0-1.64-.68,2,2,0,0,0-1.63.68,2.64,2.64,0,0,0,0,3.2,2,2,0,0,0,1.63.66,2,2,0,0,0,1.64-.66,2.48,2.48,0,0,0,.54-1.6Zm3.15-2.24a1.32,1.32,0,0,0-.86.26,1.65,1.65,0,0,0-.41.47v-.62h-1.08v4.25h1.12v-2.31a1.47,1.47,0,0,1,.11-.64.76.76,0,0,1,.77-.49.63.63,0,0,1,.62.33,1.18,1.18,0,0,1,.09.52v2.59h1.14v-2.87a1.42,1.42,0,0,0-.42-1.15,1.64,1.64,0,0,0-1.08-.34Zm4.31.91a1,1,0,0,1,.66.22,1,1,0,0,1,.29.68h-1.91a1.12,1.12,0,0,1,.29-.66.9.9,0,0,1,.67-.24Zm0-.92a2,2,0,0,0-1.53.59,2.3,2.3,0,0,0-.58,1.69A2.05,2.05,0,0,0,363,475a2.3,2.3,0,0,0,1.5.52,2.05,2.05,0,0,0,1.6-.62,1.43,1.43,0,0,0,.41-.77h-1.14a1,1,0,0,1-.22.3,1,1,0,0,1-.62.19,1.12,1.12,0,0,1-.62-.16,1,1,0,0,1-.44-.9h3.1a6,6,0,0,0,0-.84,2,2,0,0,0-.34-.88,1.7,1.7,0,0,0-.73-.63,2.32,2.32,0,0,0-1-.2Zm5,0a1.36,1.36,0,0,0-.87.26,1.82,1.82,0,0,0-.4.47v-.62h-1.08v4.25h1.11v-2.31a1.64,1.64,0,0,1,.11-.64.77.77,0,0,1,.77-.49.62.62,0,0,1,.62.33,1.18,1.18,0,0,1,.09.52v2.59H371v-2.87a1.45,1.45,0,0,0-.41-1.15,1.64,1.64,0,0,0-1.08-.34Zm2.68.93v2.62a.82.82,0,0,0,.19.59,1.45,1.45,0,0,0,1.08.28l.53,0v-.83h-.22a.8.8,0,0,1-.41-.06.55.55,0,0,1-.06-.33v-2.25H374v-.79h-.69V470h-1.11v1.19h-.59v.79Zm2.25,2.07a1.37,1.37,0,0,0,.48,1.08,2.84,2.84,0,0,0,2.94,0,1.29,1.29,0,0,0,.47-1,1.06,1.06,0,0,0-.33-.8,2.08,2.08,0,0,0-1-.47,7.61,7.61,0,0,1-1.17-.31.29.29,0,0,1-.16-.28.34.34,0,0,1,.15-.27,1,1,0,0,1,.52-.11.77.77,0,0,1,.63.23.62.62,0,0,1,.12.34h1.11a1.37,1.37,0,0,0-.57-1.1,2.43,2.43,0,0,0-1.3-.32,1.87,1.87,0,0,0-1.31.42,1.33,1.33,0,0,0-.46,1,1,1,0,0,0,.29.76,2.43,2.43,0,0,0,1,.45A5.77,5.77,0,0,1,377,474a.32.32,0,0,1,.16.28.33.33,0,0,1-.2.3,1.25,1.25,0,0,1-.52.09,1,1,0,0,1-.77-.22.69.69,0,0,1-.15-.42Z" transform="translate(-313.18 -427.51)"/><polyline class="b20b47a2-bc7b-40b1-b994-ed15b63f3af5" points="246.99 115.94 11.34 115.94 11.34 84.9"/><line class="b9bb4eda-10b0-4724-8d98-f7f35ec92728" x1="7.34" y1="84.9" x2="15.34" y2="84.9"/><line class="b20b47a2-bc7b-40b1-b994-ed15b63f3af5" x1="266.27" y1="90.59" x2="266.27" y2="98.2"/><path d="M579.44,530.5l1.8-4.8h-3.6Zm0,0" transform="translate(-313.18 -427.51)"/><path class="b9bb4eda-10b0-4724-8d98-f7f35ec92728" d="M579.44,530.5l1.8-4.8h-3.6Zm0,0" transform="translate(-313.18 -427.51)"/><line class="b20b47a2-bc7b-40b1-b994-ed15b63f3af5" x1="183.92" y1="128.01" x2="183.92" y2="121.44"/><line class="b9bb4eda-10b0-4724-8d98-f7f35ec92728" x1="179.92" y1="121.44" x2="187.92" y2="121.44"/><line class="b20b47a2-bc7b-40b1-b994-ed15b63f3af5" x1="73.74" y1="68.7" x2="73.74" y2="45.65"/><path d="M386.91,468.35l-1.8,4.8h3.6Zm0,0" transform="translate(-313.18 -427.51)"/><path class="b9bb4eda-10b0-4724-8d98-f7f35ec92728" d="M386.91,468.35l-1.8,4.8h3.6Zm0,0" transform="translate(-313.18 -427.51)"/><polyline class="b20b47a2-bc7b-40b1-b994-ed15b63f3af5" points="93.65 28.39 210.02 28.39 210.02 47.59"/><line class="b9bb4eda-10b0-4724-8d98-f7f35ec92728" x1="214.02" y1="47.59" x2="206.02" y2="47.59"/><line class="b20b47a2-bc7b-40b1-b994-ed15b63f3af5" x1="330.43" y1="68.72" x2="330.43" y2="46.28"/><path d="M643.61,469l-1.8,4.8h3.6Zm0,0" transform="translate(-313.18 -427.51)"/><path class="b9bb4eda-10b0-4724-8d98-f7f35ec92728" d="M643.61,469l-1.8,4.8h3.6Zm0,0" transform="translate(-313.18 -427.51)"/><line class="b20b47a2-bc7b-40b1-b994-ed15b63f3af5" x1="184.11" y1="16.27" x2="184.11" y2="22.84"/><line class="b9bb4eda-10b0-4724-8d98-f7f35ec92728" x1="188.11" y1="22.84" x2="180.11" y2="22.84"/><path d="M507.9,436.11a1.69,1.69,0,0,0,.65,1.41,2.82,2.82,0,0,0,1.79.51,2.56,2.56,0,0,0,1.72-.52,1.64,1.64,0,0,0,.61-1.31,1.4,1.4,0,0,0-.52-1.18,2.56,2.56,0,0,0-1-.41l-1-.24a3.34,3.34,0,0,1-.77-.24.51.51,0,0,1-.28-.46.61.61,0,0,1,.29-.53,1.4,1.4,0,0,1,.76-.18,1.66,1.66,0,0,1,.71.14.83.83,0,0,1,.47.74h1.16a1.73,1.73,0,0,0-.69-1.4,2.55,2.55,0,0,0-1.57-.48,2.44,2.44,0,0,0-1.67.51,1.65,1.65,0,0,0-.57,1.28,1.4,1.4,0,0,0,.58,1.25,3.75,3.75,0,0,0,1.26.44l.63.14a2.93,2.93,0,0,1,.8.27.5.5,0,0,1,.25.44.67.67,0,0,1-.52.67,2.25,2.25,0,0,1-.7.09,1.3,1.3,0,0,1-1-.35,1.2,1.2,0,0,1-.22-.59Zm5.49-2.48v2.56a2.66,2.66,0,0,0,.18,1.11,1.29,1.29,0,0,0,1.27.68,1.72,1.72,0,0,0,.58-.09,1.5,1.5,0,0,0,.5-.32.8.8,0,0,0,.15-.17l.08-.12v.6h1.08v-4.25H516.1v2.31a1.67,1.67,0,0,1-.11.66.77.77,0,0,1-.78.46.59.59,0,0,1-.59-.32,1.3,1.3,0,0,1-.09-.55v-2.56Zm7.23-.1a1.4,1.4,0,0,0-.77.2,1.65,1.65,0,0,0-.47.45v-2.05h-1.11v5.75h1.1v-.53a2,2,0,0,0,.41.44,1.56,1.56,0,0,0,.86.21,1.51,1.51,0,0,0,1.31-.66,2.68,2.68,0,0,0,.47-1.64,2.48,2.48,0,0,0-.47-1.56,1.58,1.58,0,0,0-1.33-.61Zm-.28,3.55a.83.83,0,0,1-.74-.36,1.53,1.53,0,0,1-.25-.91,2,2,0,0,1,.12-.75.9.9,0,0,1,1.67,0,2,2,0,0,1,.12.75,1.58,1.58,0,0,1-.25.91.77.77,0,0,1-.67.35Zm2.7-2a3.23,3.23,0,0,0,.7,2.2,2.44,2.44,0,0,0,1.93.79,2.27,2.27,0,0,0,1.63-.59,2.58,2.58,0,0,0,.79-1.53H526.9a1.83,1.83,0,0,1-.3.67,1.12,1.12,0,0,1-1,.41,1.22,1.22,0,0,1-1-.48,2.26,2.26,0,0,1-.39-1.45,2.58,2.58,0,0,1,.37-1.5,1.29,1.29,0,0,1,2-.15,1.7,1.7,0,0,1,.3.62h1.2a2.13,2.13,0,0,0-.39-1.07,2.37,2.37,0,0,0-2.1-1,2.34,2.34,0,0,0-1.77.71,3.15,3.15,0,0,0-.8,2.32Zm7.84,2a.9.9,0,0,1-.75-.34,1.64,1.64,0,0,1-.26-1,1.61,1.61,0,0,1,.26-1,.9.9,0,0,1,.75-.35.88.88,0,0,1,.75.35,1.55,1.55,0,0,1,.27,1,1.58,1.58,0,0,1-.27,1,.87.87,0,0,1-.75.34Zm2.18-1.33a2.5,2.5,0,0,0-.54-1.6,1.94,1.94,0,0,0-1.63-.67,2,2,0,0,0-1.64.67,2.5,2.5,0,0,0-.54,1.6,2.46,2.46,0,0,0,.54,1.6,2,2,0,0,0,1.64.67,1.94,1.94,0,0,0,1.63-.67,2.46,2.46,0,0,0,.54-1.6Zm5.56-2.23a1.65,1.65,0,0,0-.77.18,1.43,1.43,0,0,0-.54.55,1.2,1.2,0,0,0-.37-.51,1.28,1.28,0,0,0-.79-.22,1.4,1.4,0,0,0-.84.25,2,2,0,0,0-.39.47v-.62h-1.08v4.25H535v-2.56a1.15,1.15,0,0,1,.09-.52.65.65,0,0,1,.64-.31.54.54,0,0,1,.55.31,1.45,1.45,0,0,1,.08.55v2.53h1.12v-2.53a1.22,1.22,0,0,1,.09-.49.64.64,0,0,1,.64-.38.56.56,0,0,1,.54.29.82.82,0,0,1,.08.4v2.71h1.14V435.2a3.34,3.34,0,0,0,0-.63,1.22,1.22,0,0,0-.74-.93,1.5,1.5,0,0,0-.55-.11Zm5.31,2.22a1.71,1.71,0,0,1-.25,1,.81.81,0,0,1-.72.36.91.91,0,0,1-.56-.18,1.23,1.23,0,0,1-.39-1,2.13,2.13,0,0,1,.11-.77.86.86,0,0,1,.84-.58.8.8,0,0,1,.74.38,1.71,1.71,0,0,1,.23.87Zm-.65-2.22a1.44,1.44,0,0,0-.89.29,1.82,1.82,0,0,0-.38.43v-.62h-1.07v5.93H542v-2.22a1.5,1.5,0,0,0,.37.41,1.34,1.34,0,0,0,.85.25,1.64,1.64,0,0,0,1.31-.59,2.53,2.53,0,0,0,.51-1.71,2.27,2.27,0,0,0-.53-1.62,1.69,1.69,0,0,0-1.27-.55Zm4.49,3.56a.88.88,0,0,1-.75-.34,1.58,1.58,0,0,1-.26-1,1.55,1.55,0,0,1,.26-1,.89.89,0,0,1,.75-.35.88.88,0,0,1,.75.35,1.55,1.55,0,0,1,.26,1,1.58,1.58,0,0,1-.26,1,.87.87,0,0,1-.75.34Zm2.18-1.33a2.5,2.5,0,0,0-.54-1.6,2.33,2.33,0,0,0-3.27,0,2.5,2.5,0,0,0-.54,1.6,2.46,2.46,0,0,0,.54,1.6,2.33,2.33,0,0,0,3.27,0,2.46,2.46,0,0,0,.54-1.6Zm3.16-2.24a1.43,1.43,0,0,0-.87.26,2.25,2.25,0,0,0-.41.47v-.62h-1.07v4.25h1.11v-2.3a1.55,1.55,0,0,1,.11-.65.76.76,0,0,1,.77-.48.63.63,0,0,1,.62.33,1.16,1.16,0,0,1,.09.51v2.59h1.14V435a1.4,1.4,0,0,0-.42-1.15,1.64,1.64,0,0,0-1.07-.35Zm4.3.91a1,1,0,0,1,.66.23.91.91,0,0,1,.29.67h-1.91a1.25,1.25,0,0,1,.29-.66.9.9,0,0,1,.67-.24Zm0-.92a2.09,2.09,0,0,0-1.53.59,2.32,2.32,0,0,0-.58,1.7,2,2,0,0,0,.65,1.7,2.31,2.31,0,0,0,1.5.53,2.09,2.09,0,0,0,1.6-.62,1.43,1.43,0,0,0,.41-.77h-1.13a1.18,1.18,0,0,1-.23.29,1,1,0,0,1-.62.2,1.21,1.21,0,0,1-.62-.16,1,1,0,0,1-.44-.9h3.1a4.93,4.93,0,0,0,0-.85,2,2,0,0,0-.34-.88,1.64,1.64,0,0,0-.73-.63,2.48,2.48,0,0,0-1-.2Zm5,0a1.43,1.43,0,0,0-.87.26,2.24,2.24,0,0,0-.4.47v-.62h-1.08v4.25h1.11v-2.3a1.73,1.73,0,0,1,.11-.65.77.77,0,0,1,.77-.48.61.61,0,0,1,.62.33,1.16,1.16,0,0,1,.09.51v2.59h1.14V435a1.4,1.4,0,0,0-.41-1.15,1.65,1.65,0,0,0-1.08-.35Zm2.69.94v2.62a.85.85,0,0,0,.18.59,1.43,1.43,0,0,0,1.08.27l.53,0v-.83h-.22c-.23,0-.36,0-.41-.07a.53.53,0,0,1-.06-.32v-2.25h.69v-.8h-.69v-1.18h-1.1v1.18h-.6v.8Z" transform="translate(-313.18 -427.51)"/><path d="M417.45,445.22h-1.19V451h1.19v-5.76Zm3.4,1.4a1.43,1.43,0,0,0-.87.26,1.82,1.82,0,0,0-.41.47v-.62H418.5V451h1.11v-2.31a1.67,1.67,0,0,1,.11-.64.76.76,0,0,1,.77-.48.62.62,0,0,1,.62.32,1.21,1.21,0,0,1,.09.52V451h1.14v-2.87a1.4,1.4,0,0,0-.42-1.14,1.59,1.59,0,0,0-1.07-.35Zm2.68.93v2.62a.78.78,0,0,0,.19.59,1.4,1.4,0,0,0,1.08.28l.52,0v-.83h-.21a.78.78,0,0,1-.41-.06c-.05,0-.07-.15-.07-.33v-2.25h.69v-.79h-.69v-1.19h-1.1v1.19h-.59v.79Zm4.28,0a.92.92,0,0,1,.66.23.9.9,0,0,1,.3.67h-1.92a1.13,1.13,0,0,1,.3-.66.89.89,0,0,1,.66-.24Zm0-.92a2,2,0,0,0-1.52.59,2.3,2.3,0,0,0-.59,1.69,2.08,2.08,0,0,0,.65,1.71,2.34,2.34,0,0,0,1.5.52,2,2,0,0,0,1.6-.62,1.35,1.35,0,0,0,.42-.77h-1.14a.91.91,0,0,1-.23.3.94.94,0,0,1-.62.19,1.09,1.09,0,0,1-.61-.16,1,1,0,0,1-.45-.9h3.11a6,6,0,0,0,0-.84,2.08,2.08,0,0,0-.34-.88,1.67,1.67,0,0,0-.74-.63,2.29,2.29,0,0,0-1-.2Zm5,0a1.25,1.25,0,0,0-.81.26,2.42,2.42,0,0,0-.45.58v-.74h-1.06V451h1.12v-2a1.6,1.6,0,0,1,.13-.75.9.9,0,0,1,.9-.44h.13l.19,0v-1.14h-.15Zm3.17,2.7a.9.9,0,0,1-.32.77,1.18,1.18,0,0,1-.67.21.61.61,0,0,1-.39-.12.51.51,0,0,1-.16-.42.5.5,0,0,1,.26-.47,1.56,1.56,0,0,1,.51-.15l.25-.05a2.28,2.28,0,0,0,.3-.07l.22-.11v.41Zm-1.06-.88a2.63,2.63,0,0,0-1,.27,1.22,1.22,0,0,0-.61,1.14,1.18,1.18,0,0,0,.38.93,1.4,1.4,0,0,0,1,.33,1.59,1.59,0,0,0,.82-.21,2,2,0,0,0,.53-.42c0,.1,0,.18,0,.26a1.68,1.68,0,0,0,.08.24h1.21v-.17a.37.37,0,0,1-.17-.12.68.68,0,0,1-.06-.3c0-.19,0-.36,0-.49v-2a1,1,0,0,0-.55-1,2.63,2.63,0,0,0-1.24-.28,1.87,1.87,0,0,0-1.53.56,1.66,1.66,0,0,0-.31.92h1.07a.87.87,0,0,1,.16-.39.71.71,0,0,1,.57-.2,1.23,1.23,0,0,1,.54.1.38.38,0,0,1,.18.36.34.34,0,0,1-.24.32,1.93,1.93,0,0,1-.44.1l-.38.05Zm6.83-.19a1.66,1.66,0,0,0-.61-1.27,2.21,2.21,0,0,0-1.31-.36,1.86,1.86,0,0,0-1.48.61,2.53,2.53,0,0,0-.53,1.7,2.46,2.46,0,0,0,.48,1.58,1.82,1.82,0,0,0,1.52.61,1.78,1.78,0,0,0,1.55-.73,1.88,1.88,0,0,0,.37-1h-1.14a1,1,0,0,1-.2.55.68.68,0,0,1-.56.21.76.76,0,0,1-.75-.53,2.2,2.2,0,0,1-.11-.75,2.42,2.42,0,0,1,.11-.79.78.78,0,0,1,.77-.56.69.69,0,0,1,.59.26,1.06,1.06,0,0,1,.16.43Zm.92-.7v2.62a.82.82,0,0,0,.18.59,1.43,1.43,0,0,0,1.08.28l.53,0v-.83h-.22a.8.8,0,0,1-.41-.06.55.55,0,0,1-.06-.33v-2.25h.69v-.79h-.69v-1.19h-1.1v1.19h-.6v.79Zm3.65-2.36h-1.13v1h1.13v-1ZM445.18,451h1.13v-4.26h-1.13V451Zm4.12-.79a.91.91,0,0,1-.76-.35,2,2,0,0,1,0-2,1,1,0,0,1,1.51,0,2,2,0,0,1,0,2,.9.9,0,0,1-.75.35Zm2.18-1.33a2.48,2.48,0,0,0-.54-1.6,2.32,2.32,0,0,0-3.28,0,2.64,2.64,0,0,0,0,3.2,2.37,2.37,0,0,0,3.28,0,2.48,2.48,0,0,0,.54-1.6Zm3.15-2.24a1.43,1.43,0,0,0-.87.26,1.82,1.82,0,0,0-.4.47v-.62h-1.08V451h1.11v-2.31a1.67,1.67,0,0,1,.11-.64.77.77,0,0,1,.77-.48.61.61,0,0,1,.62.32,1.21,1.21,0,0,1,.09.52V451h1.14v-2.87a1.39,1.39,0,0,0-.41-1.14,1.6,1.6,0,0,0-1.08-.35Z" transform="translate(-313.18 -427.51)"/><path d="M417.45,547.94h-1.19v5.76h1.19v-5.76Zm3.4,1.4a1.43,1.43,0,0,0-.87.26,2,2,0,0,0-.41.47v-.62H418.5v4.25h1.11v-2.3a1.69,1.69,0,0,1,.11-.65.76.76,0,0,1,.77-.48.63.63,0,0,1,.62.33,1.16,1.16,0,0,1,.09.51v2.59h1.14v-2.87a1.4,1.4,0,0,0-.42-1.14,1.64,1.64,0,0,0-1.07-.35Zm2.68.94v2.62a.81.81,0,0,0,.19.59,1.41,1.41,0,0,0,1.08.27l.52,0v-.83h-.21a.74.74,0,0,1-.41-.07c-.05,0-.07-.15-.07-.32v-2.25h.69v-.8h-.69v-1.19h-1.1v1.19h-.59v.8Zm4.28,0a.92.92,0,0,1,.66.23.9.9,0,0,1,.3.67h-1.92a1.13,1.13,0,0,1,.3-.66.89.89,0,0,1,.66-.24Zm0-.92a2.07,2.07,0,0,0-1.52.59,2.31,2.31,0,0,0-.59,1.7,2.07,2.07,0,0,0,.65,1.7,2.35,2.35,0,0,0,1.5.53,2,2,0,0,0,1.6-.63,1.35,1.35,0,0,0,.42-.77h-1.14a.91.91,0,0,1-.23.3.94.94,0,0,1-.62.19,1.09,1.09,0,0,1-.61-.16,1,1,0,0,1-.45-.9h3.11a6.16,6.16,0,0,0,0-.84,2.13,2.13,0,0,0-.34-.88,1.67,1.67,0,0,0-.74-.63,2.44,2.44,0,0,0-1-.2Zm5,0a1.25,1.25,0,0,0-.81.26,2.32,2.32,0,0,0-.45.59v-.75h-1.06v4.26h1.12v-2a1.62,1.62,0,0,1,.13-.76.92.92,0,0,1,.9-.44h.13l.19,0v-1.14h-.15ZM436,552a.9.9,0,0,1-.32.77,1.19,1.19,0,0,1-.67.22.61.61,0,0,1-.39-.13.49.49,0,0,1-.16-.41.5.5,0,0,1,.26-.48,1.56,1.56,0,0,1,.51-.15l.25-.05a1.33,1.33,0,0,0,.3-.07l.22-.11V552Zm-1.06-.88a2.63,2.63,0,0,0-1,.27,1.23,1.23,0,0,0-.61,1.14,1.18,1.18,0,0,0,.38.93,1.4,1.4,0,0,0,1,.33,1.69,1.69,0,0,0,.82-.2,2.22,2.22,0,0,0,.53-.43c0,.1,0,.18,0,.26a1.68,1.68,0,0,0,.08.24h1.21v-.16a.48.48,0,0,1-.17-.13.61.61,0,0,1-.06-.3c0-.19,0-.36,0-.49v-2a1.05,1.05,0,0,0-.55-1,2.63,2.63,0,0,0-1.24-.28,1.87,1.87,0,0,0-1.53.56,1.66,1.66,0,0,0-.31.92h1.07a.87.87,0,0,1,.16-.39.71.71,0,0,1,.57-.19,1.1,1.1,0,0,1,.54.1.36.36,0,0,1,.18.36.32.32,0,0,1-.24.31,1.51,1.51,0,0,1-.44.1l-.38,0Zm6.83-.19a1.66,1.66,0,0,0-.61-1.27,2.21,2.21,0,0,0-1.31-.36,1.86,1.86,0,0,0-1.48.61,2.55,2.55,0,0,0-.53,1.71,2.5,2.5,0,0,0,.48,1.58,1.85,1.85,0,0,0,1.52.61,1.79,1.79,0,0,0,1.55-.74,1.88,1.88,0,0,0,.37-1h-1.14a1,1,0,0,1-.2.55.68.68,0,0,1-.56.21.76.76,0,0,1-.75-.53,2.2,2.2,0,0,1-.11-.75,2.42,2.42,0,0,1,.11-.79.78.78,0,0,1,.77-.56.69.69,0,0,1,.59.26,1.06,1.06,0,0,1,.16.43Zm.92-.69v2.62a.85.85,0,0,0,.18.59,1.43,1.43,0,0,0,1.08.27l.53,0v-.83h-.22a.76.76,0,0,1-.41-.07.53.53,0,0,1-.06-.32v-2.25h.69v-.8h-.69v-1.19h-1.1v1.19h-.6v.8Zm3.65-2.37h-1.13v1h1.13v-1Zm-1.13,5.79h1.13v-4.26h-1.13v4.26Zm4.12-.79a.88.88,0,0,1-.76-.35,2,2,0,0,1,0-2,1,1,0,0,1,1.51,0,2,2,0,0,1,0,2,.88.88,0,0,1-.75.35Zm2.18-1.33a2.48,2.48,0,0,0-.54-1.6,2.34,2.34,0,0,0-3.28,0,2.64,2.64,0,0,0,0,3.2,2.34,2.34,0,0,0,3.28,0,2.46,2.46,0,0,0,.54-1.6Zm3.15-2.24a1.43,1.43,0,0,0-.87.26,2,2,0,0,0-.4.47v-.62h-1.08v4.25h1.11v-2.3a1.69,1.69,0,0,1,.11-.65.77.77,0,0,1,.77-.48.61.61,0,0,1,.62.33,1.16,1.16,0,0,1,.09.51v2.59h1.14v-2.87a1.39,1.39,0,0,0-.41-1.14,1.65,1.65,0,0,0-1.08-.35Z" transform="translate(-313.18 -427.51)"/><path d="M599.23,545.14a1.67,1.67,0,0,0,.65,1.41,2.77,2.77,0,0,0,1.79.52,2.62,2.62,0,0,0,1.72-.52,1.65,1.65,0,0,0,.61-1.31,1.39,1.39,0,0,0-.52-1.18,2.72,2.72,0,0,0-1-.42l-1-.24a4.17,4.17,0,0,1-.77-.23.52.52,0,0,1-.28-.46.61.61,0,0,1,.29-.53,1.4,1.4,0,0,1,.76-.19,1.59,1.59,0,0,1,.72.15.82.82,0,0,1,.46.74h1.16a1.73,1.73,0,0,0-.69-1.4,2.55,2.55,0,0,0-1.57-.49,2.39,2.39,0,0,0-1.67.52,1.65,1.65,0,0,0-.57,1.28,1.4,1.4,0,0,0,.58,1.25,4,4,0,0,0,1.26.44l.63.14a2.37,2.37,0,0,1,.8.27.48.48,0,0,1,.25.44.67.67,0,0,1-.51.66,2.06,2.06,0,0,1-.71.1,1.29,1.29,0,0,1-1-.36,1.26,1.26,0,0,1-.22-.59Zm5.49-2.48v2.57a2.44,2.44,0,0,0,.19,1.1,1.25,1.25,0,0,0,1.27.68,1.71,1.71,0,0,0,.57-.08,1.67,1.67,0,0,0,.5-.32.8.8,0,0,0,.15-.17l.08-.12v.6h1.08v-4.26h-1.13V545a1.75,1.75,0,0,1-.11.66.77.77,0,0,1-.78.46.59.59,0,0,1-.59-.32,1.34,1.34,0,0,1-.09-.55v-2.57Zm7.23-.09a1.4,1.4,0,0,0-.77.19,1.85,1.85,0,0,0-.47.46v-2.05H609.6v5.75h1.1v-.53a1.72,1.72,0,0,0,.42.43,1.71,1.71,0,0,0,2.16-.44,2.68,2.68,0,0,0,.47-1.64,2.53,2.53,0,0,0-.47-1.57,1.6,1.6,0,0,0-1.33-.6Zm-.28,3.55a.83.83,0,0,1-.74-.36,1.55,1.55,0,0,1-.25-.91,2.05,2.05,0,0,1,.12-.76.91.91,0,0,1,1.67,0,2,2,0,0,1,.12.75,1.59,1.59,0,0,1-.24.92.79.79,0,0,1-.68.35Zm2.7-2a3.18,3.18,0,0,0,.7,2.19,2.45,2.45,0,0,0,1.93.8,2.31,2.31,0,0,0,1.63-.59,2.52,2.52,0,0,0,.79-1.53h-1.19a1.83,1.83,0,0,1-.3.67,1.15,1.15,0,0,1-.95.41,1.22,1.22,0,0,1-1-.48,2.28,2.28,0,0,1-.39-1.45,2.56,2.56,0,0,1,.37-1.5,1.18,1.18,0,0,1,1-.53,1.21,1.21,0,0,1,1,.38,1.63,1.63,0,0,1,.29.62h1.2A2,2,0,0,0,619,542a2.68,2.68,0,0,0-3.87-.25,3.17,3.17,0,0,0-.8,2.33Zm7.84,2a.88.88,0,0,1-.75-.35,2,2,0,0,1,0-2,.9.9,0,0,1,.75-.34.87.87,0,0,1,.75.34,1.93,1.93,0,0,1,0,2,.85.85,0,0,1-.75.35Zm2.18-1.33a2.53,2.53,0,0,0-.53-1.6,2.34,2.34,0,0,0-3.28,0,2.64,2.64,0,0,0,0,3.2,2.37,2.37,0,0,0,3.28,0,2.51,2.51,0,0,0,.53-1.6Zm5.56-2.23a1.77,1.77,0,0,0-.77.17,1.53,1.53,0,0,0-.54.56,1.3,1.3,0,0,0-.37-.52,1.56,1.56,0,0,0-1.63,0,1.82,1.82,0,0,0-.39.47v-.62h-1.08v4.25h1.13v-2.56a1.23,1.23,0,0,1,.09-.53.66.66,0,0,1,.64-.3.55.55,0,0,1,.55.3,1.51,1.51,0,0,1,.08.56v2.53h1.12v-2.53a1.16,1.16,0,0,1,.09-.49.64.64,0,0,1,.64-.39.54.54,0,0,1,.54.3.79.79,0,0,1,.08.4v2.71h1.14v-2.68a3.34,3.34,0,0,0,0-.63,1.22,1.22,0,0,0-.74-.93,1.5,1.5,0,0,0-.55-.11Zm5.31,2.22a1.63,1.63,0,0,1-.25,1,.81.81,0,0,1-.72.36.91.91,0,0,1-.56-.18,1.24,1.24,0,0,1-.39-1,2.37,2.37,0,0,1,.11-.77.85.85,0,0,1,.84-.58.8.8,0,0,1,.74.38,1.66,1.66,0,0,1,.23.87Zm-.65-2.22a1.43,1.43,0,0,0-.89.28,2.12,2.12,0,0,0-.38.44v-.63h-1.07v5.94h1.1v-2.22a1.67,1.67,0,0,0,.37.41,1.34,1.34,0,0,0,.85.25,1.67,1.67,0,0,0,1.31-.59,2.53,2.53,0,0,0,.51-1.71,2.32,2.32,0,0,0-.52-1.62,1.7,1.7,0,0,0-1.28-.55Zm4.49,3.56a.88.88,0,0,1-.75-.35,2,2,0,0,1,0-2,.9.9,0,0,1,.75-.34.87.87,0,0,1,.75.34,2,2,0,0,1,0,2,.85.85,0,0,1-.75.35Zm2.18-1.33a2.48,2.48,0,0,0-.54-1.6,2.33,2.33,0,0,0-3.27,0,2.64,2.64,0,0,0,0,3.2,2.36,2.36,0,0,0,3.27,0,2.46,2.46,0,0,0,.54-1.6Zm3.16-2.24a1.43,1.43,0,0,0-.87.26,1.82,1.82,0,0,0-.41.47v-.62h-1.07v4.25h1.11v-2.3a1.69,1.69,0,0,1,.11-.65.76.76,0,0,1,.77-.48.64.64,0,0,1,.62.32,1.21,1.21,0,0,1,.09.52v2.59h1.14v-2.87a1.4,1.4,0,0,0-.42-1.14,1.64,1.64,0,0,0-1.07-.35Zm4.3.91a1,1,0,0,1,.66.23.94.94,0,0,1,.3.67h-1.92a1.19,1.19,0,0,1,.29-.66.9.9,0,0,1,.67-.24Zm0-.92a2,2,0,0,0-1.52.59,2.27,2.27,0,0,0-.59,1.7,2.07,2.07,0,0,0,.65,1.7,2.3,2.3,0,0,0,1.5.52,2.05,2.05,0,0,0,1.6-.62,1.33,1.33,0,0,0,.41-.77h-1.13a1.07,1.07,0,0,1-.23.3,1,1,0,0,1-.62.19,1.12,1.12,0,0,1-.62-.16,1,1,0,0,1-.44-.9h3.1a4.81,4.81,0,0,0,0-.84,2,2,0,0,0-.34-.88,1.64,1.64,0,0,0-.73-.63,2.48,2.48,0,0,0-1-.2Zm5,0a1.43,1.43,0,0,0-.87.26,1.82,1.82,0,0,0-.4.47v-.62h-1.08v4.25h1.11v-2.3a1.69,1.69,0,0,1,.11-.65.78.78,0,0,1,.78-.48.64.64,0,0,1,.62.32,1.42,1.42,0,0,1,.08.52v2.59h1.15v-2.87a1.4,1.4,0,0,0-.42-1.14,1.65,1.65,0,0,0-1.08-.35Zm2.69.93v2.63a.85.85,0,0,0,.18.59,1.43,1.43,0,0,0,1.08.27l.53,0v-.83H658a.76.76,0,0,1-.41-.07.55.55,0,0,1-.06-.33v-2.25h.69v-.79h-.69v-1.19h-1.1v1.19h-.6v.79Z" transform="translate(-313.18 -427.51)"/><path d="M507.9,567.15a1.67,1.67,0,0,0,.65,1.41,2.82,2.82,0,0,0,1.79.51,2.56,2.56,0,0,0,1.72-.52,1.63,1.63,0,0,0,.61-1.31,1.39,1.39,0,0,0-.52-1.17,2.41,2.41,0,0,0-1-.42l-1-.24a3.34,3.34,0,0,1-.77-.24.5.5,0,0,1-.28-.46.59.59,0,0,1,.29-.52,1.32,1.32,0,0,1,.76-.19,1.66,1.66,0,0,1,.71.14.84.84,0,0,1,.47.74h1.16a1.73,1.73,0,0,0-.69-1.4,2.55,2.55,0,0,0-1.57-.48,2.44,2.44,0,0,0-1.67.51,1.66,1.66,0,0,0-.57,1.29,1.39,1.39,0,0,0,.58,1.24,3.75,3.75,0,0,0,1.26.44l.63.14a2.93,2.93,0,0,1,.8.27.5.5,0,0,1,.25.44.67.67,0,0,1-.52.67,2.25,2.25,0,0,1-.7.09,1.27,1.27,0,0,1-1-.35,1.2,1.2,0,0,1-.22-.59Zm5.49-2.48v2.56a2.66,2.66,0,0,0,.18,1.11,1.29,1.29,0,0,0,1.27.68,1.72,1.72,0,0,0,.58-.09,1.35,1.35,0,0,0,.5-.32.61.61,0,0,0,.15-.17l.08-.12v.61h1.08v-4.26H516.1V567a1.67,1.67,0,0,1-.11.66.78.78,0,0,1-.78.47.59.59,0,0,1-.59-.33,1.27,1.27,0,0,1-.09-.55v-2.56Zm7.23-.1a1.4,1.4,0,0,0-.77.2,1.65,1.65,0,0,0-.47.45v-2h-1.11v5.75h1.1v-.54a2,2,0,0,0,.41.44,1.56,1.56,0,0,0,.86.21,1.53,1.53,0,0,0,1.31-.65,2.73,2.73,0,0,0,.47-1.65,2.48,2.48,0,0,0-.47-1.56,1.61,1.61,0,0,0-1.33-.61Zm-.28,3.55a.83.83,0,0,1-.74-.36,1.52,1.52,0,0,1-.25-.9,2,2,0,0,1,.12-.76.91.91,0,0,1,1.67,0,2,2,0,0,1,.12.75,1.56,1.56,0,0,1-.25.91.75.75,0,0,1-.67.35Zm2.7-2a3.21,3.21,0,0,0,.7,2.2,2.45,2.45,0,0,0,1.93.8,2.31,2.31,0,0,0,1.63-.59,2.63,2.63,0,0,0,.79-1.54H526.9a1.83,1.83,0,0,1-.3.67,1.13,1.13,0,0,1-1,.42,1.2,1.2,0,0,1-1-.49,2.26,2.26,0,0,1-.39-1.45,2.54,2.54,0,0,1,.37-1.49,1.15,1.15,0,0,1,1-.53,1.17,1.17,0,0,1,1,.37,1.68,1.68,0,0,1,.3.63h1.2a2.16,2.16,0,0,0-.39-1.08,2.69,2.69,0,0,0-3.87-.24,3.15,3.15,0,0,0-.8,2.32Zm7.84,2a.9.9,0,0,1-.75-.35,2,2,0,0,1,0-2,.9.9,0,0,1,.75-.35.88.88,0,0,1,.75.35,1.93,1.93,0,0,1,0,2,.88.88,0,0,1-.75.35Zm2.18-1.34a2.47,2.47,0,0,0-.54-1.59,2,2,0,0,0-1.63-.68,2,2,0,0,0-1.64.68,2.47,2.47,0,0,0-.54,1.59,2.44,2.44,0,0,0,.54,1.6,2,2,0,0,0,1.64.67,1.94,1.94,0,0,0,1.63-.67,2.44,2.44,0,0,0,.54-1.6Zm5.56-2.23a1.65,1.65,0,0,0-.77.18,1.5,1.5,0,0,0-.54.55,1.2,1.2,0,0,0-.37-.51,1.34,1.34,0,0,0-.79-.22,1.4,1.4,0,0,0-.84.25,2.1,2.1,0,0,0-.39.48v-.62h-1.08v4.25H535v-2.57a1.18,1.18,0,0,1,.09-.52.65.65,0,0,1,.64-.31.54.54,0,0,1,.55.31,1.45,1.45,0,0,1,.08.55v2.54h1.12v-2.54a1.22,1.22,0,0,1,.09-.49.65.65,0,0,1,.64-.38.55.55,0,0,1,.54.3.75.75,0,0,1,.08.39v2.72h1.14v-2.69a3.48,3.48,0,0,0,0-.63,1.16,1.16,0,0,0-.24-.54,1.22,1.22,0,0,0-.5-.39,1.5,1.5,0,0,0-.55-.11Zm5.31,2.23a1.67,1.67,0,0,1-.25,1,.81.81,0,0,1-.72.36,1,1,0,0,1-.56-.17,1.25,1.25,0,0,1-.39-1.05,2.13,2.13,0,0,1,.11-.77.85.85,0,0,1,.84-.57.78.78,0,0,1,.74.38,1.66,1.66,0,0,1,.23.87Zm-.65-2.23a1.44,1.44,0,0,0-.89.29,1.88,1.88,0,0,0-.38.44v-.63h-1.07v5.93H542v-2.22a1.5,1.5,0,0,0,.37.41,1.35,1.35,0,0,0,.85.26,1.67,1.67,0,0,0,1.31-.59,2.58,2.58,0,0,0,.51-1.72,2.23,2.23,0,0,0-.53-1.61,1.67,1.67,0,0,0-1.27-.56Zm4.49,3.57a.89.89,0,0,1-.75-.35,2,2,0,0,1,0-2,.89.89,0,0,1,.75-.35.88.88,0,0,1,.75.35,2,2,0,0,1,0,2,.88.88,0,0,1-.75.35ZM550,566.8a2.47,2.47,0,0,0-.54-1.59,2.31,2.31,0,0,0-3.27,0,2.47,2.47,0,0,0-.54,1.59,2.44,2.44,0,0,0,.54,1.6,2.33,2.33,0,0,0,3.27,0,2.44,2.44,0,0,0,.54-1.6Zm3.16-2.23a1.42,1.42,0,0,0-.87.25,2.1,2.1,0,0,0-.41.48v-.62h-1.07v4.25h1.11v-2.31A1.55,1.55,0,0,1,552,566a.76.76,0,0,1,.77-.48.63.63,0,0,1,.62.33,1.18,1.18,0,0,1,.09.52v2.59h1.14v-2.87a1.4,1.4,0,0,0-.42-1.15,1.63,1.63,0,0,0-1.07-.34Zm4.3.9a1,1,0,0,1,.66.23.94.94,0,0,1,.29.68h-1.91a1.19,1.19,0,0,1,.29-.66.87.87,0,0,1,.67-.25Zm0-.92a2.06,2.06,0,0,0-1.53.6,2.28,2.28,0,0,0-.58,1.69,2.05,2.05,0,0,0,.65,1.71,2.3,2.3,0,0,0,1.5.52,2.09,2.09,0,0,0,1.6-.62,1.43,1.43,0,0,0,.41-.77h-1.13a1.18,1.18,0,0,1-.23.29,1,1,0,0,1-.62.2,1.21,1.21,0,0,1-.62-.16,1,1,0,0,1-.44-.9h3.1a4.93,4.93,0,0,0,0-.85,2.05,2.05,0,0,0-.34-.88,1.78,1.78,0,0,0-.73-.63,2.48,2.48,0,0,0-1-.2Zm5,0a1.42,1.42,0,0,0-.87.25,2.1,2.1,0,0,0-.4.48v-.62h-1.08v4.25h1.11v-2.31a1.73,1.73,0,0,1,.11-.65.77.77,0,0,1,.77-.48.61.61,0,0,1,.62.33,1.18,1.18,0,0,1,.09.52v2.59h1.14v-2.87a1.4,1.4,0,0,0-.41-1.15,1.64,1.64,0,0,0-1.08-.34Zm2.69.93v2.62a.83.83,0,0,0,.18.59,1.43,1.43,0,0,0,1.08.27l.53,0v-.83h-.22a.8.8,0,0,1-.41-.06.59.59,0,0,1-.06-.33V565.5h.69v-.79h-.69v-1.19h-1.1v1.19h-.6v.79Z" transform="translate(-313.18 -427.51)"/><path class="b5364ee6-4596-4973-9f8b-1de0c5fdbd5a" d="M362.15,507.06a8,8,0,0,0-15.91,0Zm0,0" transform="translate(-313.18 -427.51)"/><path class="b41ad756-86ee-44c0-bd8d-bf164cc221f0" d="M362.15,507.06a8,8,0,0,0-15.91,0Zm0,0-42,0v-13.7h12.91" transform="translate(-313.18 -427.51)"/><polyline class="b14179c5-6494-4d39-a16e-09e2c635a18f" points="16.53 62.73 20.34 65.95 16.48 69.42"/><line class="b41ad756-86ee-44c0-bd8d-bf164cc221f0" x1="104.69" y1="65.56" x2="104.69" y2="79.04"/><g class="b854d1cd-d7f0-46d2-ac5e-5ca30e015354"><line class="a1541788-6510-42e2-a957-6d80dcec5376" x1="97.31" y1="65.56" x2="112.1" y2="65.56"/><line class="acecbdb5-10fe-47c3-80de-67f11276e090" x1="1" y1="79.55" x2="115.39" y2="79.55"/></g><path class="a73e2733-fc67-43a4-afe6-a83f730ebc71" d="M374.85,499.25v15.59h22.69l7-7.8-7-7.79Zm0,0" transform="translate(-313.18 -427.51)"/><path class="b41ad756-86ee-44c0-bd8d-bf164cc221f0" d="M374.85,499.25v15.59h22.69l7-7.8-7-7.79Zm0,0" transform="translate(-313.18 -427.51)"/><path class="bb82aca0-7b75-4218-84e9-e686477dc23a" d="M380.17,505.06h-.71l-.15.72H380l-.74,3.46a1.29,1.29,0,0,0,.05.82c.1.21.36.32.77.32l.36,0,.33-.07.14-.69h-.31a.66.66,0,0,1-.33-.05c-.11-.06-.15-.18-.11-.37l.73-3.41h.83l.15-.72h-.83l.31-1.46h-.89l-.31,1.46Zm5.83.15a2,2,0,0,0-1-.26,2.82,2.82,0,0,0-2,.78,3.86,3.86,0,0,0-1.12,2,2.42,2.42,0,0,0,.26,2,1.76,1.76,0,0,0,1.5.71,3.43,3.43,0,0,0,.74-.08,2.62,2.62,0,0,0,1.1-.53,3.11,3.11,0,0,0,.56-.58,2.35,2.35,0,0,0,.36-.64h-.86a2,2,0,0,1-.47.61,1.68,1.68,0,0,1-1.19.46,1,1,0,0,1-1-.48,2,2,0,0,1-.1-1.28h3.83a6.54,6.54,0,0,0,.17-1.15,2.09,2.09,0,0,0-.16-.93,1.45,1.45,0,0,0-.65-.67Zm-3,2.05a2.12,2.12,0,0,1,.67-1.11,1.68,1.68,0,0,1,1.11-.44,1,1,0,0,1,1.07.64,2,2,0,0,1,.05.91Zm5.53-2.2h-.71l-.15.72h.71l-.74,3.46a1.29,1.29,0,0,0,.05.82c.1.21.36.32.77.32l.36,0,.33-.07.14-.69H389a.66.66,0,0,1-.33-.05c-.11-.06-.15-.18-.11-.37l.73-3.41h.83l.15-.72h-.83l.31-1.46h-.89l-.31,1.46Zm3.53,1.35.51-2.45h2.38a1.57,1.57,0,0,1,.76.15c.34.18.45.53.34,1a1.39,1.39,0,0,1-.61,1,2.19,2.19,0,0,1-1.14.28Zm-1.8,3.88h1l.65-3.07h2.21a2,2,0,0,1,.85.13c.29.16.4.47.32.94l-.19,1.2a3.81,3.81,0,0,0-.07.56,1.44,1.44,0,0,0,0,.24h1.2l0-.16c-.14-.06-.21-.21-.22-.44a2.69,2.69,0,0,1,.06-.61l.17-1a1.48,1.48,0,0,0,0-.9,1,1,0,0,0-.54-.45,2.83,2.83,0,0,0,.89-.66,2.54,2.54,0,0,0,.49-1.06,1.37,1.37,0,0,0-.66-1.69,2.93,2.93,0,0,0-1.3-.24h-3.32l-1.52,7.17Z" transform="translate(-313.18 -427.51)"/><path d="M517.52,486a1.24,1.24,0,0,1-1.25-.81,2.6,2.6,0,0,1-.18-1,3.65,3.65,0,0,1,.18-1.24,1.24,1.24,0,0,1,1.25-.91,1.26,1.26,0,0,1,1.26.86,2.91,2.91,0,0,1,.18,1.08,2.46,2.46,0,0,1-.41,1.54,1.27,1.27,0,0,1-1,.51Zm-2.28,2.68h.88V486a2.16,2.16,0,0,0,.53.5,1.78,1.78,0,0,0,1,.26,2,2,0,0,0,1.32-.46,3,3,0,0,0,.9-2.44,2.8,2.8,0,0,0-.62-1.95,2,2,0,0,0-1.51-.68,1.9,1.9,0,0,0-1.05.29,2.3,2.3,0,0,0-.58.55v-.69h-.86v7.29Zm5.15-9.26v.86h2.42v6.32h1v-6.32h2.42v-.86Z" transform="translate(-313.18 -427.51)"/><path d="M528,481.22a2.23,2.23,0,0,0-1.77.78,3.05,3.05,0,0,0-.68,2.05,2.77,2.77,0,0,0,.67,2,2.2,2.2,0,0,0,1.65.71,3.08,3.08,0,0,0,.71-.08,2,2,0,0,0,1-.52,2.19,2.19,0,0,0,.43-.58,1.76,1.76,0,0,0,.23-.65h-.86a1.55,1.55,0,0,1-.33.62A1.39,1.39,0,0,1,528,486a1.26,1.26,0,0,1-1.08-.48,2.31,2.31,0,0,1-.37-1.28h3.8a6.34,6.34,0,0,0-.07-1.15,2.42,2.42,0,0,0-.35-.92,2,2,0,0,0-.79-.68,2.45,2.45,0,0,0-1.08-.26Zm-1.49,2.31a1.68,1.68,0,0,1,.43-1.11,1.32,1.32,0,0,1,1-.43,1.25,1.25,0,0,1,1.19.63,2.19,2.19,0,0,1,.25.91Zm5.07-2.19h-.7v.71h.7v3.47a1.43,1.43,0,0,0,.22.81,1,1,0,0,0,.84.32l.35,0a3,3,0,0,0,.32-.06v-.7H533a.71.71,0,0,1-.34-.06.35.35,0,0,1-.19-.36v-3.42h.84v-.71h-.84v-1.46h-.89v1.46Z" transform="translate(-313.18 -427.51)"/><path class="b5364ee6-4596-4973-9f8b-1de0c5fdbd5a" d="M557.12,507.08a8,8,0,0,0-15.9,0Zm0,0" transform="translate(-313.18 -427.51)"/><path class="b41ad756-86ee-44c0-bd8d-bf164cc221f0" d="M557.12,507.08a8,8,0,0,0-15.9,0Zm0,0-39.14,0v-13.7h12.91" transform="translate(-313.18 -427.51)"/><polyline class="b14179c5-6494-4d39-a16e-09e2c635a18f" points="214.34 62.74 218.15 65.97 214.29 69.44"/><line class="b41ad756-86ee-44c0-bd8d-bf164cc221f0" x1="359.04" y1="65.86" x2="359.04" y2="79.34"/><g class="b854d1cd-d7f0-46d2-ac5e-5ca30e015354"><line class="a1541788-6510-42e2-a957-6d80dcec5376" x1="351.66" y1="65.86" x2="366.46" y2="65.86"/><line class="acecbdb5-10fe-47c3-80de-67f11276e090" x1="198.81" y1="79.57" x2="371.78" y2="79.57"/></g><path class="f59dbbe7-1ee5-4832-81e7-7cf622f518e2" d="M565.7,499.27v15.59h22.82l7-7.8-7-7.79Zm0,0" transform="translate(-313.18 -427.51)"/><path class="b41ad756-86ee-44c0-bd8d-bf164cc221f0" d="M565.7,499.27v15.59h22.82l7-7.8-7-7.79Zm0,0" transform="translate(-313.18 -427.51)"/><path class="bb82aca0-7b75-4218-84e9-e686477dc23a" d="M571.5,510.31h.88l1.53-7.17H573l-1.53,7.17Zm3.32-.79a.58.58,0,0,1-.15-.6,1,1,0,0,1,.56-.73,2.36,2.36,0,0,1,.76-.2l.55-.07a3.39,3.39,0,0,0,.52-.1,1.57,1.57,0,0,0,.45-.17l-.15.71a1.57,1.57,0,0,1-1,1.16,2.23,2.23,0,0,1-1,.22.83.83,0,0,1-.61-.22Zm.92-2.2a2.62,2.62,0,0,0-1.3.49,1.8,1.8,0,0,0-.69,1.13A1.22,1.22,0,0,0,574,510a1.34,1.34,0,0,0,1.1.45,2.76,2.76,0,0,0,1.16-.26,3.09,3.09,0,0,0,.9-.61,1.1,1.1,0,0,0,0,.48.56.56,0,0,0,.59.32h.3l.32-.07.15-.65-.17,0h-.13c-.12,0-.19,0-.22-.09a.39.39,0,0,1,0-.22l.64-3a1,1,0,0,0-.34-1.09,2.38,2.38,0,0,0-1.42-.36,3,3,0,0,0-1.48.38,2,2,0,0,0-.91,1.35h.82a1.46,1.46,0,0,1,.34-.61,1.39,1.39,0,0,1,1.05-.37,1.43,1.43,0,0,1,.87.2.56.56,0,0,1,.18.65.84.84,0,0,1-.12.34.63.63,0,0,1-.47.25l-1.43.18Zm8-2a1.9,1.9,0,0,0-1.35-.43,2.67,2.67,0,0,0-1.86.77,3.91,3.91,0,0,0-1.13,2.14,2.51,2.51,0,0,0,.21,1.87,1.6,1.6,0,0,0,1.48.75,2.72,2.72,0,0,0,1.6-.48,3,3,0,0,0,1.06-1.52h-.86a2.42,2.42,0,0,1-.63.92,1.42,1.42,0,0,1-.94.33.89.89,0,0,1-.93-.54,2.14,2.14,0,0,1,0-1.32,3.82,3.82,0,0,1,.51-1.31,1.6,1.6,0,0,1,1.38-.82.89.89,0,0,1,.82.32,1.34,1.34,0,0,1,.19.8h.85a1.71,1.71,0,0,0-.35-1.48Zm.83,4.95h1l1.53-7.17h-1l-1.52,7.17Z" transform="translate(-313.18 -427.51)"/><path class="b5364ee6-4596-4973-9f8b-1de0c5fdbd5a" d="M621.69,507.08a8,8,0,0,0-15.9,0Zm0,0" transform="translate(-313.18 -427.51)"/><path class="b41ad756-86ee-44c0-bd8d-bf164cc221f0" d="M621.69,507.08a8,8,0,0,0-15.9,0Zm0,0" transform="translate(-313.18 -427.51)"/><path class="f98d8a1e-6a9e-4272-8c95-9eff2957812a" d="M631.9,499.35v15.59h21.19l7-7.79-7-7.8Zm0,0" transform="translate(-313.18 -427.51)"/><path class="b41ad756-86ee-44c0-bd8d-bf164cc221f0" d="M631.9,499.35v15.59h21.19l7-7.79-7-7.8Zm0,0" transform="translate(-313.18 -427.51)"/><path class="bb82aca0-7b75-4218-84e9-e686477dc23a" d="M640.77,505.07a2.48,2.48,0,0,0-1.7.74,3.76,3.76,0,0,0-1.08,2.05,2.33,2.33,0,0,0,.21,2,1.7,1.7,0,0,0,1.36.6,2.16,2.16,0,0,0,1.78-.79,4.66,4.66,0,0,1-.48,1.5,1.65,1.65,0,0,1-1.48.71,1.07,1.07,0,0,1-.87-.29.82.82,0,0,1-.14-.55h-.9a1.19,1.19,0,0,0,.39,1.19,2.21,2.21,0,0,0,1.35.38,2.66,2.66,0,0,0,2.29-1.07,4.08,4.08,0,0,0,.63-1.57l1-4.76h-.81l-.15.66a1.46,1.46,0,0,0-1.41-.8Zm.92,1.25a1.94,1.94,0,0,1,.09,1.44,3.35,3.35,0,0,1-.45,1.13,1.73,1.73,0,0,1-1.51.85.91.91,0,0,1-.87-.46,1.9,1.9,0,0,1-.07-1.35,3.7,3.7,0,0,1,.44-1.21,1.62,1.62,0,0,1,1.45-.87,1,1,0,0,1,.92.47Zm3.17-1.95-.18.82H644l-.15.69h.73l-1,4.52h.87l1-4.52h.88l.14-.69h-.87a4.08,4.08,0,0,1,.31-1.06c.08-.14.25-.2.52-.2h.31l.17-.8-.2,0h-.17a1.63,1.63,0,0,0-1.28.45,1.93,1.93,0,0,0-.36.8Zm4.74,4.92a1.57,1.57,0,0,1-1.13.51,1,1,0,0,1-1.08-.81,2.45,2.45,0,0,1,0-1,4.36,4.36,0,0,1,.44-1.24,1.62,1.62,0,0,1,1.45-.91,1,1,0,0,1,1.06.86,2.68,2.68,0,0,1,0,1.08,3,3,0,0,1-.74,1.54Zm-4,3.19h.88l.56-2.67a1.57,1.57,0,0,0,.42.5,1.53,1.53,0,0,0,.93.26,2.41,2.41,0,0,0,1.42-.46,3.77,3.77,0,0,0,1.41-2.44,2.48,2.48,0,0,0-.2-1.95,1.58,1.58,0,0,0-1.37-.68,2.18,2.18,0,0,0-1.1.29,3.12,3.12,0,0,0-.7.55l.15-.69h-.86l-1.54,7.29Z" transform="translate(-313.18 -427.51)"/><path class="a73e2733-fc67-43a4-afe6-a83f730ebc71" d="M379.67,448.28h15.06a7.79,7.79,0,0,1,7.79,7.79h0a7.8,7.8,0,0,1-7.79,7.8H379.67a7.8,7.8,0,0,1-7.79-7.8h0a7.79,7.79,0,0,1,7.79-7.79Zm0,0" transform="translate(-313.18 -427.51)"/><path class="b14179c5-6494-4d39-a16e-09e2c635a18f" d="M379.67,448.28h15.06a7.79,7.79,0,0,1,7.79,7.79h0a7.8,7.8,0,0,1-7.79,7.8H379.67a7.8,7.8,0,0,1-7.79-7.8h0a7.79,7.79,0,0,1,7.79-7.79Zm0,0" transform="translate(-313.18 -427.51)"/><polygon class="bb82aca0-7b75-4218-84e9-e686477dc23a" points="63.91 24.91 63.91 25.76 66.32 25.76 66.32 32.08 67.3 32.08 67.3 25.76 69.72 25.76 69.72 24.91 63.91 24.91 63.91 24.91"/><path class="bb82aca0-7b75-4218-84e9-e686477dc23a" d="M384.72,454.24A2.23,2.23,0,0,0,383,455a3,3,0,0,0-.68,2.05,2.77,2.77,0,0,0,.67,2,2.2,2.2,0,0,0,1.65.71,3.08,3.08,0,0,0,.71-.08,2,2,0,0,0,1-.52,2.43,2.43,0,0,0,.43-.58,1.76,1.76,0,0,0,.23-.65h-.86a1.68,1.68,0,0,1-.33.62,1.39,1.39,0,0,1-1.09.45,1.24,1.24,0,0,1-1.08-.48,2.31,2.31,0,0,1-.37-1.28H387a6.34,6.34,0,0,0-.07-1.15,2.42,2.42,0,0,0-.35-.92,2,2,0,0,0-.8-.68,2.38,2.38,0,0,0-1.07-.26Zm-1.49,2.31a1.63,1.63,0,0,1,.43-1.11,1.32,1.32,0,0,1,1-.43,1.27,1.27,0,0,1,1.19.63,2.35,2.35,0,0,1,.25.91Zm5.07-2.19h-.71v.71h.71v3.47a1.43,1.43,0,0,0,.22.81,1,1,0,0,0,.84.32l.35,0c.11,0,.21,0,.32-.06v-.7h-.31a.68.68,0,0,1-.34-.06.35.35,0,0,1-.19-.36v-3.42H390v-.71h-.84V452.9h-.89v1.46Zm3.81,1.34v-2.45h2.31a1.83,1.83,0,0,1,.77.14,1.08,1.08,0,0,1,.54,1.05,1.17,1.17,0,0,1-.38,1,1.83,1.83,0,0,1-1.06.27Zm-1,3.89h1v-3.08h2.15a2,2,0,0,1,.85.13,1,1,0,0,1,.51.94l.05,1.2c0,.28,0,.47.05.57a1.35,1.35,0,0,0,.08.24H397v-.17a.59.59,0,0,1-.31-.44,2.6,2.6,0,0,1-.07-.61l0-1a1.65,1.65,0,0,0-.24-.9,1.39,1.39,0,0,0-.63-.45,1.91,1.91,0,0,0,.74-.66,1.86,1.86,0,0,0,.27-1,1.7,1.7,0,0,0-1-1.7,3.2,3.2,0,0,0-1.33-.24h-3.26v7.18Z" transform="translate(-313.18 -427.51)"/><path class="b9923e73-c4dc-4094-b6c3-8f9d82f6e2cf" d="M501.76,560.27a6.38,6.38,0,1,1-9,0,6.38,6.38,0,0,1,9,0" transform="translate(-313.18 -427.51)"/><g class="b854d1cd-d7f0-46d2-ac5e-5ca30e015354"><path class="b14179c5-6494-4d39-a16e-09e2c635a18f" d="M501.76,560.27a6.38,6.38,0,1,1-9,0,6.38,6.38,0,0,1,9,0" transform="translate(-313.18 -427.51)"/></g><path d="M465.73,568.93h1v-7.18h-1v7.18Zm2.65,0h1v-3h2.24a2,2,0,0,0,1.6-.62,2.18,2.18,0,0,0,.52-1.46,2,2,0,0,0-.59-1.52,2.17,2.17,0,0,0-1.53-.54h-3.21v7.18Zm4.35-5.12a1.1,1.1,0,0,1-.41,1,1.78,1.78,0,0,1-1.05.28h-1.92v-2.48h1.92a2.14,2.14,0,0,1,.88.15,1.09,1.09,0,0,1,.58,1.07Zm1.62-2.06v.86h2.42v6.32h1v-6.32h2.42v-.86Zm9.77-.18a3.06,3.06,0,0,0-2.37,1,4.14,4.14,0,0,0-1,2.87,3.94,3.94,0,0,0,1,2.84,3.38,3.38,0,0,0,3.76.46,3.55,3.55,0,0,0,.86-.75l.23.93h.62v-3.84H484.1v.8h2.24a2.4,2.4,0,0,1-.64,1.83,2.27,2.27,0,0,1-1.57.56,2,2,0,0,1-1.8-.8,3.6,3.6,0,0,1-.55-2.08,3.23,3.23,0,0,1,.67-2.23,2.1,2.1,0,0,1,1.64-.75,2.39,2.39,0,0,1,1.36.36,1.78,1.78,0,0,1,.72,1.15h1a2.56,2.56,0,0,0-1.29-2,3.61,3.61,0,0,0-1.72-.39Z" transform="translate(-313.18 -427.51)"/><path class="b9923e73-c4dc-4094-b6c3-8f9d82f6e2cf" d="M501.65,430.37a6.38,6.38,0,1,1-9,0,6.38,6.38,0,0,1,9,0" transform="translate(-313.18 -427.51)"/><g class="b854d1cd-d7f0-46d2-ac5e-5ca30e015354"><path class="b14179c5-6494-4d39-a16e-09e2c635a18f" d="M501.65,430.37a6.38,6.38,0,1,1-9,0,6.38,6.38,0,0,1,9,0" transform="translate(-313.18 -427.51)"/></g><path d="M473.2,437.64a.78.78,0,0,1,.41-.73,2,2,0,0,1,.72-.2l.53-.07.49-.09a1.65,1.65,0,0,0,.42-.18v.71a1.23,1.23,0,0,1-.73,1.17,2,2,0,0,1-.9.21,1,1,0,0,1-.66-.22.7.7,0,0,1-.28-.6Zm.73-1.6a2.12,2.12,0,0,0-1.19.5,1.39,1.39,0,0,0-.46,1.12,1.52,1.52,0,0,0,.46,1.11,1.68,1.68,0,0,0,1.19.44A2.39,2.39,0,0,0,475,439a2.22,2.22,0,0,0,.77-.61,1.23,1.23,0,0,0,.15.48.72.72,0,0,0,.66.32h.3l.31-.07v-.65l-.16,0h-.13a.27.27,0,0,1-.24-.09.42.42,0,0,1-.05-.22v-3a1.19,1.19,0,0,0-.57-1.09,2.82,2.82,0,0,0-1.5-.35,2.51,2.51,0,0,0-1.4.38,1.49,1.49,0,0,0-.62,1.34h.82a1.29,1.29,0,0,1,.2-.61,1.17,1.17,0,0,1,1-.37,1.73,1.73,0,0,1,.91.2.87.87,0,0,1,.26,1,.46.46,0,0,1-.4.26l-1.4.17Zm3.67-4.18v.85H480V439h1v-6.32h2.42v-.85Z" transform="translate(-313.18 -427.51)"/><path d="M485.1,433.65a2.17,2.17,0,0,0-1.7.77,3.12,3.12,0,0,0-.67,2.14,2.84,2.84,0,0,0,.61,1.87,2,2,0,0,0,1.64.75,2.06,2.06,0,0,0,2.23-2h-.86a1.73,1.73,0,0,1-.44.91,1.11,1.11,0,0,1-.86.34,1.14,1.14,0,0,1-1.05-.54,2.49,2.49,0,0,1-.33-1.32,3.34,3.34,0,0,1,.23-1.31,1.23,1.23,0,0,1,1.2-.82,1.12,1.12,0,0,1,.9.32,1.59,1.59,0,0,1,.35.8h.86a2.09,2.09,0,0,0-.67-1.48,2.26,2.26,0,0,0-1.44-.43Z" transform="translate(-313.18 -427.51)"/><path class="f59dbbe7-1ee5-4832-81e7-7cf622f518e2" d="M571.53,535.61h15.06a7.79,7.79,0,0,1,7.79,7.79h0a7.8,7.8,0,0,1-7.79,7.8H571.53a7.8,7.8,0,0,1-7.8-7.8h0a7.8,7.8,0,0,1,7.8-7.79Zm0,0" transform="translate(-313.18 -427.51)"/><path class="b14179c5-6494-4d39-a16e-09e2c635a18f" d="M571.53,535.61h15.06a7.79,7.79,0,0,1,7.79,7.79h0a7.8,7.8,0,0,1-7.79,7.8H571.53a7.8,7.8,0,0,1-7.8-7.8h0a7.8,7.8,0,0,1,7.8-7.79Zm0,0" transform="translate(-313.18 -427.51)"/><path class="bb82aca0-7b75-4218-84e9-e686477dc23a" d="M570.37,546.92h4.57v-.86h-3.6v-6.31h-1v7.17Zm6.12-1.39a.76.76,0,0,1,.4-.73,2.09,2.09,0,0,1,.72-.2l.53-.07a3,3,0,0,0,.5-.1,1.36,1.36,0,0,0,.42-.17V545a1.21,1.21,0,0,1-.74,1.16,1.93,1.93,0,0,1-.9.22,1,1,0,0,1-.65-.22.72.72,0,0,1-.28-.6Zm.72-1.6a2.15,2.15,0,0,0-1.19.49,1.59,1.59,0,0,0,0,2.23,1.62,1.62,0,0,0,1.19.44,2.33,2.33,0,0,0,1.11-.26,2.19,2.19,0,0,0,.77-.61,1.35,1.35,0,0,0,.15.49.74.74,0,0,0,.66.32h.29l.32-.08v-.65l-.16,0h-.13a.3.3,0,0,1-.24-.08.38.38,0,0,1-.06-.22v-3a1.2,1.2,0,0,0-.57-1.1,2.86,2.86,0,0,0-1.49-.35,2.6,2.6,0,0,0-1.4.38,1.52,1.52,0,0,0-.63,1.35h.82a1.35,1.35,0,0,1,.21-.61,1.16,1.16,0,0,1,1-.38,1.66,1.66,0,0,1,.91.21.71.71,0,0,1,.32.65.77.77,0,0,1-.06.34.46.46,0,0,1-.4.25l-1.41.18Zm6.18-2.39a2.14,2.14,0,0,0-1.7.76,3.15,3.15,0,0,0-.67,2.15,2.84,2.84,0,0,0,.61,1.87,2,2,0,0,0,1.63.75,2.29,2.29,0,0,0,1.5-.48,2.32,2.32,0,0,0,.74-1.52h-.86a1.85,1.85,0,0,1-.44.91,1.3,1.3,0,0,1-1.91-.2,2.5,2.5,0,0,1-.33-1.33,3.2,3.2,0,0,1,.23-1.31,1.24,1.24,0,0,1,1.2-.82,1.16,1.16,0,0,1,.9.32,1.62,1.62,0,0,1,.35.81h.86a2.07,2.07,0,0,0-.67-1.48,2.26,2.26,0,0,0-1.44-.43Zm3.32,5.38h1v-7.17h-1v7.17Z" transform="translate(-313.18 -427.51)"/><path class="f98d8a1e-6a9e-4272-8c95-9eff2957812a" d="M636.09,448.29h15.06a7.8,7.8,0,0,1,7.79,7.8h0a7.79,7.79,0,0,1-7.79,7.79H636.09a7.79,7.79,0,0,1-7.79-7.79h0a7.8,7.8,0,0,1,7.79-7.8Zm0,0" transform="translate(-313.18 -427.51)"/><path class="b14179c5-6494-4d39-a16e-09e2c635a18f" d="M636.09,448.29h15.06a7.8,7.8,0,0,1,7.79,7.8h0a7.79,7.79,0,0,1-7.79,7.79H636.09a7.79,7.79,0,0,1-7.79-7.79h0a7.8,7.8,0,0,1,7.79-7.8Zm0,0" transform="translate(-313.18 -427.51)"/><path class="bb82aca0-7b75-4218-84e9-e686477dc23a" d="M637.16,452.25a3,3,0,0,0-2.37,1,4.13,4.13,0,0,0-1,2.87,3.94,3.94,0,0,0,1,2.84,3.08,3.08,0,0,0,2.16.82,3.21,3.21,0,0,0,1.6-.36,3.79,3.79,0,0,0,.86-.75l.23.92h.63v-3.83h-3.15v.8h2.24a2.4,2.4,0,0,1-.64,1.83,2.27,2.27,0,0,1-1.57.56,2,2,0,0,1-1.8-.8,3.68,3.68,0,0,1-.55-2.09,3.2,3.2,0,0,1,.67-2.22,2.1,2.1,0,0,1,1.64-.75,2.39,2.39,0,0,1,1.36.36,1.78,1.78,0,0,1,.72,1.14h1a2.55,2.55,0,0,0-1.29-2,3.61,3.61,0,0,0-1.72-.39ZM642,459.6h1v-3.26h3.52v-.85H643v-2.18h4v-.88h-5v7.17Zm6.1,0h1v-3h2.24a2,2,0,0,0,1.59-.62,2.2,2.2,0,0,0,.53-1.46,2,2,0,0,0-.59-1.52,2.18,2.18,0,0,0-1.54-.54h-3.21v7.17Zm4.35-5.11a1.09,1.09,0,0,1-.4,1,1.78,1.78,0,0,1-1,.28h-1.92v-2.48H651a2.06,2.06,0,0,1,.87.15,1.07,1.07,0,0,1,.58,1.07Z" transform="translate(-313.18 -427.51)"/><path d="M499.48,453.76a3.12,3.12,0,1,1-4.41,0,3.13,3.13,0,0,1,4.41,0" transform="translate(-313.18 -427.51)"/><path d="M499.48,541.25a3.12,3.12,0,1,1-4.41,0,3.13,3.13,0,0,1,4.41,0" transform="translate(-313.18 -427.51)"/></svg>